<svg width="40" height="46" viewBox="0 0 40 46" fill="none" xmlns="http://www.w3.org/2000/svg">
<g clip-path="url(#clip0_236_6)">
<path d="M39.9516 12.2361C39.871 11.7748 39.5808 11.3772 39.1777 11.1386L21.056 0.831031C20.4111 0.465177 19.605 0.465177 18.944 0.831031L0.935107 11.0749C0.386941 11.3294 0 11.8862 0 12.5224V33.1852C0 33.9328 0.403063 34.6168 1.04796 34.9827L19.1858 45.322C19.4276 45.4652 19.7179 45.5288 19.9919 45.5288C20.266 45.5288 20.5562 45.4652 20.7981 45.322L38.9359 34.9827C39.5808 34.6168 39.9839 33.9169 39.9839 33.1852V12.602C39.9839 12.5065 39.9678 12.3475 39.9516 12.252V12.2361ZM31.9549 28.5564L30.8424 30.4652C30.7134 30.7038 30.794 30.9901 31.0197 31.1333L34.4055 33.058C34.7279 33.2488 34.7279 33.7101 34.4055 33.901L22.3297 40.7886C22.0073 40.9795 21.5881 40.7409 21.5881 40.3591V24.2298C21.5881 24.0548 21.6848 23.8957 21.8299 23.8003L36.0177 15.6879C36.3402 15.497 36.7594 15.7356 36.7594 16.1174V29.8607C36.7594 30.2425 36.3402 30.4652 36.0177 30.2902L32.632 28.3655C32.3902 28.2382 32.1 28.3178 31.9549 28.5405V28.5564ZM7.35187 28.3655L3.96614 30.2902C3.64369 30.4811 3.22451 30.2425 3.22451 29.8607V16.1174C3.22451 15.7356 3.64369 15.5129 3.96614 15.6879L18.1217 23.7526C18.2829 23.8321 18.3636 24.0071 18.3636 24.182V40.3273C18.3636 40.7091 17.9444 40.9318 17.6219 40.7568L5.56227 33.8851C5.23982 33.6942 5.23982 33.2329 5.56227 33.0421L8.948 31.1014C9.18984 30.9742 9.27046 30.672 9.12535 30.4334L8.0129 28.5246C7.88392 28.286 7.57759 28.2064 7.33575 28.3496L7.35187 28.3655ZM21.6042 9.53199V5.66666C21.6042 5.2849 22.0234 5.06221 22.3458 5.23718L34.4216 12.1089C34.7441 12.2997 34.7441 12.761 34.4216 12.9519L20.2821 21.0325C20.1209 21.128 19.9436 21.128 19.7823 21.0325L5.5784 12.9519C5.25595 12.761 5.25595 12.2997 5.5784 12.1089L17.6219 5.25309C17.9444 5.06221 18.3636 5.30081 18.3636 5.68257V9.53199C18.3636 9.8024 18.5893 10.0251 18.8634 10.0251H21.1044C21.3785 10.0251 21.6042 9.8024 21.6042 9.53199Z" fill="#202020"/>
</g>
<defs>
<clipPath id="clip0_236_6">
<rect width="40" height="45" fill="white" transform="translate(0 0.544922)"/>
</clipPath>
</defs>
</svg>
