<svg width="1527" height="1527" viewBox="0 0 1527 1527" fill="none" xmlns="http://www.w3.org/2000/svg">
<g clip-path="url(#clip0_1056_224)">
<path d="M1527 0H0V1527H1527V0Z" fill="#1D233A"/>
<path d="M755.256 209.763L755.255 209.763C729.442 183.949 687.59 183.949 661.776 209.763L420.696 450.843C394.883 476.656 394.883 518.508 420.696 544.322L420.697 544.322C446.51 570.136 488.363 570.136 514.176 544.322L755.256 303.243C781.069 277.429 781.069 235.577 755.256 209.763Z" fill="#7432FF"/>
<path d="M986.494 214.681L986.493 214.681C960.68 188.867 918.828 188.867 893.014 214.681L651.935 455.761C626.121 481.574 626.121 523.426 651.935 549.24L651.935 549.24C677.749 575.054 719.601 575.054 745.414 549.24L986.494 308.161C1012.31 282.347 1012.31 240.495 986.494 214.681Z" fill="#7432FF"/>
<path d="M1065.23 372.123L1065.23 372.122C1039.42 346.309 997.564 346.309 971.751 372.122L888.11 455.763C862.297 481.576 862.297 523.428 888.11 549.242L888.111 549.242C913.924 575.056 955.776 575.056 981.59 549.242L1065.23 465.602C1091.04 439.788 1091.04 397.936 1065.23 372.123Z" fill="#C5F617"/>
<path d="M487.885 737.835L438.055 916.201H395.891L362.415 789.198L327.407 916.201L285.498 916.456L237.457 737.835H275.788L307.219 876.337L343.506 737.835H383.37L417.612 875.57L449.299 737.835H487.885ZM642.849 842.35C642.849 847.461 642.506 852.06 641.827 856.149H538.332C539.184 866.371 542.761 874.379 549.065 880.17C555.368 885.96 563.119 888.858 572.319 888.858C585.607 888.858 595.062 883.149 600.684 871.737H639.271C635.183 885.368 627.342 896.611 615.76 905.468C604.176 914.156 589.951 918.501 573.085 918.501C559.456 918.501 547.191 915.521 536.288 909.557C525.555 903.424 517.122 894.823 510.989 883.747C505.027 872.672 502.046 859.895 502.046 845.416C502.046 830.763 505.027 817.905 510.989 806.83C516.952 795.755 525.3 787.241 536.032 781.276C546.765 775.311 559.116 772.332 573.085 772.332C586.544 772.332 598.554 775.23 609.116 781.021C619.849 786.811 628.108 795.075 633.905 805.808C639.863 816.372 642.849 828.551 642.849 842.35ZM605.794 832.128C605.624 822.929 602.302 815.606 595.828 810.152C589.354 804.53 581.433 801.719 572.063 801.719C563.204 801.719 555.709 804.443 549.576 809.896C543.613 815.176 539.95 822.586 538.588 832.128H605.794ZM704.733 795.331C709.332 788.519 715.64 782.978 723.643 778.721C731.82 774.464 741.106 772.332 751.496 772.332C763.594 772.332 774.495 775.311 784.205 781.276C794.09 787.241 801.837 795.755 807.459 806.83C813.256 817.731 816.148 830.427 816.148 844.905C816.148 859.384 813.256 872.248 807.459 883.492C801.837 894.567 794.09 903.168 784.205 909.301C774.495 915.434 763.594 918.501 751.496 918.501C740.938 918.501 731.652 916.456 723.643 912.368C715.808 908.111 709.507 902.657 704.733 896.013V916.201H668.957V727.102H704.733V795.331ZM779.606 844.905C779.606 836.385 777.817 829.062 774.239 822.929C770.836 816.628 766.237 811.854 760.44 808.619C754.818 805.384 748.685 803.764 742.041 803.764C735.572 803.764 729.439 805.465 723.643 808.874C718.021 812.109 713.421 816.883 709.843 823.185C706.44 829.486 704.733 836.896 704.733 845.416C704.733 853.936 706.44 861.347 709.843 867.648C713.421 873.95 718.021 878.805 723.643 882.214C729.439 885.449 735.572 887.069 742.041 887.069C748.685 887.069 754.818 885.368 760.44 881.958C766.237 878.549 770.836 873.694 774.239 867.393C777.817 861.092 779.606 853.594 779.606 844.905ZM905.013 918.501C891.382 918.501 879.116 915.521 868.215 909.557C857.308 903.424 848.707 894.823 842.406 883.747C836.273 872.672 833.206 859.895 833.206 845.416C833.206 830.938 836.354 818.161 842.661 807.086C849.131 796.01 857.906 787.496 868.982 781.532C880.051 775.399 892.404 772.332 906.035 772.332C919.66 772.332 932.013 775.399 943.088 781.532C954.157 787.496 962.846 796.01 969.153 807.086C975.622 818.161 978.863 830.938 978.863 845.416C978.863 859.895 975.542 872.672 968.897 883.747C962.422 894.823 953.565 903.424 942.321 909.557C931.246 915.521 918.812 918.501 905.013 918.501ZM905.013 887.325C911.482 887.325 917.534 885.792 923.156 882.725C928.946 879.49 933.546 874.716 936.955 868.415C940.358 862.114 942.066 854.448 942.066 845.416C942.066 831.96 938.488 821.651 931.333 814.496C924.346 807.173 915.745 803.508 905.524 803.508C895.302 803.508 886.695 807.173 879.714 814.496C872.896 821.651 869.493 831.96 869.493 845.416C869.493 858.873 872.815 869.269 879.459 876.592C886.271 883.747 894.791 887.325 905.013 887.325ZM1064.13 883.236L1099.91 774.632H1137.98L1085.6 916.201H1042.16L990.026 774.632H1028.36L1064.13 883.236ZM1293.51 774.632L1205.86 983.152H1167.79L1198.45 912.623L1141.72 774.632H1181.84L1218.38 873.526L1255.44 774.632H1293.51ZM1245.73 737.835L1186.95 764.666V739.112L1245.73 708.703V737.835ZM327.541 1063.08C332.141 1056.6 338.444 1051.24 346.451 1046.98C354.628 1042.55 363.913 1040.34 374.305 1040.34C386.401 1040.34 397.303 1043.32 407.014 1049.28C416.894 1055.24 424.646 1063.76 430.268 1074.83C436.06 1085.74 438.956 1098.43 438.956 1112.91C438.956 1127.39 436.06 1140.25 430.268 1151.5C424.646 1162.57 416.894 1171.17 407.014 1177.31C397.303 1183.44 386.401 1186.5 374.305 1186.5C363.913 1186.5 354.714 1184.37 346.707 1180.12C338.87 1175.86 332.482 1170.49 327.541 1164.02V1251.67H291.766V1042.64H327.541V1063.08ZM402.414 1112.91C402.414 1104.39 400.625 1097.07 397.048 1090.93C393.64 1084.63 389.041 1079.86 383.249 1076.62C377.627 1073.39 371.494 1071.77 364.85 1071.77C358.376 1071.77 352.243 1073.47 346.451 1076.88C340.829 1080.11 336.23 1084.89 332.652 1091.19C329.245 1097.49 327.541 1104.9 327.541 1113.42C327.541 1121.94 329.245 1129.35 332.652 1135.65C336.23 1141.95 340.829 1146.81 346.451 1150.22C352.243 1153.45 358.376 1155.07 364.85 1155.07C371.494 1155.07 377.627 1153.37 383.249 1149.96C389.041 1146.55 393.64 1141.7 397.048 1135.4C400.625 1129.1 402.414 1121.6 402.414 1112.91ZM455.754 1112.91C455.754 1098.6 458.565 1085.91 464.187 1074.83C469.979 1063.76 477.73 1055.24 487.441 1049.28C497.321 1043.32 508.309 1040.34 520.405 1040.34C530.968 1040.34 540.167 1042.47 548.003 1046.72C556.01 1050.98 562.399 1056.35 567.169 1062.82V1042.64H603.2V1184.2H567.169V1163.51C562.569 1170.15 556.181 1175.68 548.003 1180.12C539.996 1184.37 530.712 1186.5 520.15 1186.5C508.225 1186.5 497.321 1183.44 487.441 1177.31C477.73 1171.17 469.979 1162.57 464.187 1151.5C458.565 1140.25 455.754 1127.39 455.754 1112.91ZM567.169 1113.42C567.169 1104.73 565.465 1097.32 562.058 1091.19C558.651 1084.89 554.051 1080.11 548.259 1076.88C542.467 1073.47 536.249 1071.77 529.605 1071.77C522.961 1071.77 516.828 1073.39 511.206 1076.62C505.584 1079.86 500.984 1084.63 497.407 1090.93C493.999 1097.07 492.296 1104.39 492.296 1112.91C492.296 1121.43 493.999 1128.92 497.407 1135.4C500.984 1141.7 505.584 1146.55 511.206 1149.96C516.998 1153.37 523.131 1155.07 529.605 1155.07C536.249 1155.07 542.467 1153.45 548.259 1150.22C554.051 1146.81 558.651 1142.04 562.058 1135.91C565.465 1129.61 567.169 1122.11 567.169 1113.42ZM673.918 1064.61C678.518 1057.11 684.477 1051.24 691.806 1046.98C699.298 1042.72 707.818 1040.59 717.36 1040.59V1078.16H707.905C696.661 1078.16 688.141 1080.8 682.351 1086.08C676.729 1091.36 673.918 1100.56 673.918 1113.68V1184.2H638.143V1042.64H673.918V1064.61ZM783.108 1072.02V1140.51C783.108 1145.28 784.211 1148.77 786.43 1150.98C788.811 1153.03 792.732 1154.05 798.185 1154.05H814.795V1184.2H792.308C762.154 1184.2 747.077 1169.55 747.077 1140.25V1072.02H730.212V1042.64H747.077V1007.63H783.108V1042.64H814.795V1072.02H783.108ZM918.974 1040.59C935.84 1040.59 949.47 1045.96 959.86 1056.69C970.256 1067.26 975.448 1082.08 975.448 1101.15V1184.2H939.673V1106.01C939.673 1094.77 936.862 1086.17 931.24 1080.2C925.618 1074.07 917.952 1071 908.241 1071C898.363 1071 890.528 1074.07 884.732 1080.2C879.11 1086.17 876.299 1094.77 876.299 1106.01V1184.2H840.523V1042.64H876.299V1060.27C881.073 1054.14 887.119 1049.37 894.442 1045.96C901.94 1042.38 910.117 1040.59 918.974 1040.59ZM1141.07 1110.35C1141.07 1115.46 1140.73 1120.06 1140.05 1124.15H1036.56C1037.41 1134.37 1040.98 1142.38 1047.29 1148.17C1053.59 1153.96 1061.35 1156.86 1070.55 1156.86C1083.83 1156.86 1093.29 1151.15 1098.91 1139.74H1137.5C1133.41 1153.37 1125.57 1164.62 1113.99 1173.47C1102.4 1182.16 1088.18 1186.5 1071.31 1186.5C1057.68 1186.5 1045.42 1183.53 1034.51 1177.56C1023.78 1171.43 1015.35 1162.83 1009.22 1151.75C1003.25 1140.68 1000.27 1127.9 1000.27 1113.42C1000.27 1098.77 1003.25 1085.91 1009.22 1074.83C1015.17 1063.76 1023.53 1055.24 1034.26 1049.28C1044.99 1043.32 1057.34 1040.34 1071.31 1040.34C1084.77 1040.34 1096.78 1043.23 1107.34 1049.02C1118.08 1054.81 1126.33 1063.08 1132.13 1073.81C1138.09 1084.38 1141.07 1096.55 1141.07 1110.35ZM1104.02 1100.13C1103.85 1090.93 1100.52 1083.61 1094.06 1078.16C1087.58 1072.53 1079.66 1069.72 1070.29 1069.72C1061.43 1069.72 1053.94 1072.45 1047.8 1077.9C1041.84 1083.18 1038.17 1090.59 1036.81 1100.13H1104.02ZM1202.96 1064.61C1207.56 1057.11 1213.52 1051.24 1220.85 1046.98C1228.34 1042.72 1236.86 1040.59 1246.4 1040.59V1078.16H1236.95C1225.7 1078.16 1217.19 1080.8 1211.39 1086.08C1205.77 1091.36 1202.96 1100.56 1202.96 1113.68V1184.2H1167.18V1042.64H1202.96V1064.61Z" fill="white"/>
</g>
<defs>
<clipPath id="clip0_1056_224">
<rect width="1527" height="1527" rx="2" fill="white"/>
</clipPath>
</defs>
</svg>
